<?xml version="1.0" encoding="UTF-8"?>
<!DOCTYPE svg PUBLIC "-//W3C//DTD SVG 1.1//EN" "http://www.w3.org/Graphics/SVG/1.1/DTD/svg11.dtd">
<svg xmlns="http://www.w3.org/2000/svg" version="1.1" width="592px" height="591px" style="shape-rendering:geometricPrecision; text-rendering:geometricPrecision; image-rendering:optimizeQuality; fill-rule:evenodd; clip-rule:evenodd" xmlns:xlink="http://www.w3.org/1999/xlink">
<g><path style="opacity:0.954" fill="#fefffe" d="M 285.5,51.5 C 380.726,51.3495 453.893,91.0162 505,170.5C 543.369,239.188 549.035,310.521 522,384.5C 488.916,461.579 431.749,510.746 350.5,532C 260.849,549.474 183.683,526.307 119,462.5C 65.3504,402.948 44.3504,333.282 56,253.5C 72.5068,171.017 118.34,111.184 193.5,74C 222.911,60.8133 253.577,53.3133 285.5,51.5 Z M 276.5,72.5 C 372.876,69.0871 445.043,108.754 493,191.5C 528.136,263.507 526.802,334.84 489,405.5C 438.116,486.526 364.616,523.359 268.5,516C 192.136,504.262 135.302,464.762 98,397.5C 63.7557,327.524 64.4223,257.857 100,188.5C 139.7,120.889 198.534,82.2224 276.5,72.5 Z M 285.5,149.5 C 334.992,147.983 371.158,168.983 394,212.5C 406.287,240.983 406.62,269.649 395,298.5C 379.482,335.226 359.148,368.893 334,399.5C 322.167,413.333 310.333,427.167 298.5,441C 296.833,441.667 295.167,441.667 293.5,441C 256.4,402.895 225.9,360.062 202,312.5C 193.644,294.576 188.811,275.743 187.5,256C 193.348,195.658 226.014,160.158 285.5,149.5 Z M 291.5,212.5 C 319.505,213.009 336.005,227.009 341,254.5C 340.884,280.279 328.384,296.446 303.5,303C 282.814,305.572 266.98,298.072 256,280.5C 244.614,254.334 250.781,233.501 274.5,218C 280.038,215.374 285.705,213.54 291.5,212.5 Z"/></g>
<g><path style="opacity:0.951" fill="#fefffe" d="M 288.5,129.5 C 343.951,129.205 384.784,153.205 411,201.5C 426.369,235.38 427.369,269.714 414,304.5C 399.168,341.189 379.501,374.856 355,405.5C 343.376,420.126 331.376,434.459 319,448.5C 315.466,452.369 311.633,455.869 307.5,459C 299.013,462.552 290.679,462.219 282.5,458C 247.689,423.191 218.189,384.357 194,341.5C 183.819,322.807 176.153,303.14 171,282.5C 161.535,218.262 185.368,171.095 242.5,141C 257.333,134.625 272.667,130.792 288.5,129.5 Z M 285.5,149.5 C 226.014,160.158 193.348,195.658 187.5,256C 188.811,275.743 193.644,294.576 202,312.5C 225.9,360.062 256.4,402.895 293.5,441C 295.167,441.667 296.833,441.667 298.5,441C 310.333,427.167 322.167,413.333 334,399.5C 359.148,368.893 379.482,335.226 395,298.5C 406.62,269.649 406.287,240.983 394,212.5C 371.158,168.983 334.992,147.983 285.5,149.5 Z M 291.5,212.5 C 285.705,213.54 280.038,215.374 274.5,218C 250.781,233.501 244.614,254.334 256,280.5C 266.98,298.072 282.814,305.572 303.5,303C 328.384,296.446 340.884,280.279 341,254.5C 336.005,227.009 319.505,213.009 291.5,212.5 Z"/></g>
<g><path style="opacity:0.954" fill="#fefffe" d="M 284.5,193.5 C 324.18,190.702 349.346,208.368 360,246.5C 363.402,288.074 344.902,313.574 304.5,323C 274.42,325.213 251.92,313.38 237,287.5C 223.442,253.216 231.276,225.05 260.5,203C 268.063,198.373 276.063,195.206 284.5,193.5 Z M 291.5,212.5 C 285.705,213.54 280.038,215.374 274.5,218C 250.781,233.501 244.614,254.334 256,280.5C 266.98,298.072 282.814,305.572 303.5,303C 328.384,296.446 340.884,280.279 341,254.5C 336.005,227.009 319.505,213.009 291.5,212.5 Z"/></g>
</svg>
