<?xml version="1.0" encoding="UTF-8"?>
<!DOCTYPE svg PUBLIC "-//W3C//DTD SVG 1.1//EN" "http://www.w3.org/Graphics/SVG/1.1/DTD/svg11.dtd">
<svg xmlns="http://www.w3.org/2000/svg" version="1.1" width="591px" height="591px" style="shape-rendering:geometricPrecision; text-rendering:geometricPrecision; image-rendering:optimizeQuality; fill-rule:evenodd; clip-rule:evenodd" xmlns:xlink="http://www.w3.org/1999/xlink">
<g><path style="opacity:0.954" fill="#3d7abd" d="M 283.5,51.5 C 381.594,51.1139 456.094,92.4472 507,175.5C 539.313,235.648 546.313,298.648 528,364.5C 505.406,434.527 460.906,485.36 394.5,517C 328.937,544.816 263.27,545.149 197.5,518C 119.343,481.168 71.8429,420.335 55,335.5C 42.5236,239.878 73.357,161.711 147.5,101C 187.948,71.1279 233.282,54.6279 283.5,51.5 Z M 275.5,72.5 C 352.64,68.669 416.474,95.669 467,153.5C 514.869,215.18 528.536,283.847 508,359.5C 483.167,433.667 433.667,483.167 359.5,508C 283.848,528.536 215.182,514.87 153.5,467C 82.4755,403.579 58.3089,325.412 81,232.5C 100.289,171.547 138.122,126.047 194.5,96C 220.29,83.5651 247.29,75.7318 275.5,72.5 Z M 212.5,155.5 C 227.17,156.182 241.837,157.015 256.5,158C 258.815,159.109 260.315,160.943 261,163.5C 262.504,180.193 264.17,196.86 266,213.5C 265.535,214.931 264.701,216.097 263.5,217C 259.317,218.796 254.984,220.129 250.5,221C 240.514,224.802 236.681,231.969 239,242.5C 251.886,289.125 274.719,329.958 307.5,365C 311.81,369.238 316.976,371.738 323,372.5C 326.763,372.135 330.263,370.968 333.5,369C 337.435,364.39 341.935,360.557 347,357.5C 355.758,363.251 364.258,369.417 372.5,376C 379.148,379.901 385.315,384.401 391,389.5C 391.402,390.872 391.902,392.205 392.5,393.5C 386.056,407.559 378.723,421.059 370.5,434C 367.991,435.336 365.324,436.17 362.5,436.5C 349.128,434.32 336.795,429.487 325.5,422C 267.006,380.796 227.839,325.629 208,256.5C 200.088,229.961 197.754,202.961 201,175.5C 202.038,167.074 205.871,160.408 212.5,155.5 Z"/></g>
<g><path style="opacity:0.953" fill="#3d7abd" d="M 208.5,135.5 C 226.203,135.608 243.87,136.441 261.5,138C 272.952,141.786 279.785,149.619 282,161.5C 282.381,175.26 283.714,188.927 286,202.5C 289.302,223.679 280.469,236.012 259.5,239.5C 271.912,281.674 293.078,318.674 323,350.5C 334.78,336.428 348.613,333.928 364.5,343C 375.947,353.223 388.28,362.223 401.5,370C 410.158,377.973 413.658,387.806 412,399.5C 405.13,414.906 397.464,429.906 389,444.5C 379.803,455.013 368.303,458.846 354.5,456C 337.477,451.988 321.81,444.988 307.5,435C 238.003,382.899 195.836,313.732 181,227.5C 176.724,203.807 178.057,180.473 185,157.5C 189.212,146.116 197.045,138.783 208.5,135.5 Z M 212.5,155.5 C 205.871,160.408 202.038,167.074 201,175.5C 197.754,202.961 200.088,229.961 208,256.5C 227.839,325.629 267.006,380.796 325.5,422C 336.795,429.487 349.128,434.32 362.5,436.5C 365.324,436.17 367.991,435.336 370.5,434C 378.723,421.059 386.056,407.559 392.5,393.5C 391.902,392.205 391.402,390.872 391,389.5C 385.315,384.401 379.148,379.901 372.5,376C 364.258,369.417 355.758,363.251 347,357.5C 341.935,360.557 337.435,364.39 333.5,369C 330.263,370.968 326.763,372.135 323,372.5C 316.976,371.738 311.81,369.238 307.5,365C 274.719,329.958 251.886,289.125 239,242.5C 236.681,231.969 240.514,224.802 250.5,221C 254.984,220.129 259.317,218.796 263.5,217C 264.701,216.097 265.535,214.931 266,213.5C 264.17,196.86 262.504,180.193 261,163.5C 260.315,160.943 258.815,159.109 256.5,158C 241.837,157.015 227.17,156.182 212.5,155.5 Z"/></g>
</svg>
