<?xml version="1.0" encoding="UTF-8"?>
<!DOCTYPE svg PUBLIC "-//W3C//DTD SVG 1.1//EN" "http://www.w3.org/Graphics/SVG/1.1/DTD/svg11.dtd">
<svg xmlns="http://www.w3.org/2000/svg" version="1.1" width="592px" height="591px" style="shape-rendering:geometricPrecision; text-rendering:geometricPrecision; image-rendering:optimizeQuality; fill-rule:evenodd; clip-rule:evenodd" xmlns:xlink="http://www.w3.org/1999/xlink">
<g><path style="opacity:0.954" fill="#fefffe" d="M 284.5,51.5 C 379.622,50.9641 452.789,90.2974 504,169.5C 543.62,239.947 548.953,312.947 520,388.5C 480.389,475.077 413.222,524.577 318.5,537C 237.587,542.706 169.421,516.206 114,457.5C 61.6418,396.085 42.6418,325.419 57,245.5C 75.9706,165.036 122.804,107.203 197.5,72C 225.469,60.2438 254.469,53.4105 284.5,51.5 Z M 276.5,72.5 C 354.541,68.6178 418.708,96.2844 469,155.5C 515.148,216.241 528.481,283.575 509,357.5C 481.316,440.184 425.149,492.017 340.5,513C 254.767,527.536 182.934,502.703 125,438.5C 75.745,376.564 61.4116,307.23 82,230.5C 107.329,155.171 157.829,105.338 233.5,81C 247.757,77.0724 262.091,74.2391 276.5,72.5 Z M 234.5,158.5 C 275.168,158.333 315.835,158.5 356.5,159C 361.185,160.35 364.685,163.183 367,167.5C 368.658,251.443 368.992,335.443 368,419.5C 366.594,424.573 363.428,428.073 358.5,430C 317.226,431.65 275.893,431.983 234.5,431C 229.09,429.257 225.256,425.757 223,420.5C 221.342,337.89 221.008,255.223 222,172.5C 223.917,165.753 228.084,161.086 234.5,158.5 Z"/></g>
<g><path style="opacity:0.957" fill="#fefffe" d="M 234.5,137.5 C 275.168,137.333 315.835,137.5 356.5,138C 374.874,140.708 385.708,151.208 389,169.5C 389.667,253.167 389.667,336.833 389,420.5C 384.677,439.491 372.844,449.991 353.5,452C 314.5,452.667 275.5,452.667 236.5,452C 218.357,450.522 206.857,441.022 202,423.5C 201.333,337.833 201.333,252.167 202,166.5C 206.788,149.87 217.621,140.203 234.5,137.5 Z M 234.5,158.5 C 228.084,161.086 223.917,165.753 222,172.5C 221.008,255.223 221.342,337.89 223,420.5C 225.256,425.757 229.09,429.257 234.5,431C 275.893,431.983 317.226,431.65 358.5,430C 363.428,428.073 366.594,424.573 368,419.5C 368.992,335.443 368.658,251.443 367,167.5C 364.685,163.183 361.185,160.35 356.5,159C 315.835,158.5 275.168,158.333 234.5,158.5 Z"/></g>
<g><path style="opacity:0.933" fill="#fefffe" d="M 290.5,386.5 C 301.148,384.987 307.481,389.487 309.5,400C 308.706,408.794 303.873,413.627 295,414.5C 282.149,411.293 278.482,403.626 284,391.5C 285.965,389.45 288.132,387.783 290.5,386.5 Z"/></g>
</svg>
