<?xml version="1.0" encoding="UTF-8"?>
<!DOCTYPE svg PUBLIC "-//W3C//DTD SVG 1.1//EN" "http://www.w3.org/Graphics/SVG/1.1/DTD/svg11.dtd">
<svg xmlns="http://www.w3.org/2000/svg" version="1.1" width="591px" height="591px" style="shape-rendering:geometricPrecision; text-rendering:geometricPrecision; image-rendering:optimizeQuality; fill-rule:evenodd; clip-rule:evenodd" xmlns:xlink="http://www.w3.org/1999/xlink">
<g><path style="opacity:0.954" fill="#3d7abd" d="M 283.5,51.5 C 370.024,50.1845 439.524,83.5178 492,151.5C 540.56,222.515 550.894,298.848 523,380.5C 490.652,460.181 432.819,510.681 349.5,532C 256.758,549.75 177.925,524.584 113,456.5C 57.2021,389.543 39.8688,313.543 61,228.5C 85.1583,151.343 134.658,97.5092 209.5,67C 233.596,58.4155 258.262,53.2488 283.5,51.5 Z M 276.5,72.5 C 356.536,68.7805 421.703,97.7805 472,159.5C 521.92,229.434 530.92,304.434 499,384.5C 465.655,454.833 410.822,498 334.5,514C 241.907,526.602 167.74,495.769 112,421.5C 69.8621,357.061 61.5288,288.394 87,215.5C 123.053,131.953 186.219,84.2859 276.5,72.5 Z M 293.5,164.5 C 296.516,164.841 299.182,166.007 301.5,168C 319.096,185.015 331.762,205.181 339.5,228.5C 324.817,228.253 310.15,228.586 295.5,229.5C 280.5,228.917 265.5,228.25 250.5,227.5C 257.78,208.929 267.614,191.929 280,176.5C 284.099,171.892 288.599,167.892 293.5,164.5 Z M 259.5,169.5 C 260.376,169.369 261.043,169.702 261.5,170.5C 248.518,187.292 238.518,205.792 231.5,226C 216.918,226.38 202.584,224.713 188.5,221C 206.528,195.993 230.195,178.826 259.5,169.5 Z M 328.5,170.5 C 358.816,177.87 383.149,194.536 401.5,220.5C 400.975,221.192 400.308,221.692 399.5,222C 385.962,225.154 372.295,226.321 358.5,225.5C 351.309,205.438 341.309,187.105 328.5,170.5 Z M 178.5,237.5 C 194.008,240.858 209.674,243.192 225.5,244.5C 216.729,280.949 217.729,317.116 228.5,353C 228.095,353.945 227.428,354.612 226.5,355C 212.289,355.911 198.289,358.078 184.5,361.5C 166.383,332.47 160.883,301.137 168,267.5C 170.664,257.179 174.164,247.179 178.5,237.5 Z M 409.5,237.5 C 410.496,237.414 411.329,237.748 412,238.5C 431.629,280.618 429.629,321.618 406,361.5C 392.089,357.941 377.922,355.774 363.5,355C 362.692,354.692 362.025,354.192 361.5,353.5C 372.315,317.451 373.315,281.117 364.5,244.5C 374.504,243.5 384.504,242.333 394.5,241C 399.758,240.386 404.758,239.219 409.5,237.5 Z M 244.5,245.5 C 278.499,246.825 312.499,246.825 346.5,245.5C 355.494,281.517 354.328,317.184 343,352.5C 340.589,353.139 338.089,353.473 335.5,353.5C 306.149,352.582 276.815,352.248 247.5,352.5C 235.391,317.123 234.391,281.456 244.5,245.5 Z M 257.5,370.5 C 282.502,370.333 307.502,370.5 332.5,371C 333.624,371.249 334.624,371.749 335.5,372.5C 327.759,391.486 316.426,407.986 301.5,422C 299.532,423.544 297.365,424.711 295,425.5C 284.667,419.167 276.333,410.833 270,400.5C 264.072,391.65 258.906,382.316 254.5,372.5C 255.602,371.824 256.602,371.158 257.5,370.5 Z M 224.5,372.5 C 228.226,372.177 231.893,372.511 235.5,373.5C 241.947,389.735 250.447,404.735 261,418.5C 261.688,419.332 261.521,419.998 260.5,420.5C 234.112,412.605 212.112,398.105 194.5,377C 204.619,375.322 214.619,373.822 224.5,372.5 Z M 355.5,372.5 C 368.956,372.89 382.29,374.39 395.5,377C 377.808,398.673 355.474,413.006 328.5,420C 339.677,405.489 348.677,389.656 355.5,372.5 Z"/></g>
<g><path style="opacity:0.954" fill="#3d7abd" d="M 284.5,146.5 C 353.575,145.604 402.742,176.271 432,238.5C 452.706,293.588 445.039,344.254 409,390.5C 362.035,440.616 305.869,454.783 240.5,433C 181.136,406.319 149.803,360.319 146.5,295C 148.672,243.979 170.005,203.312 210.5,173C 232.934,157.69 257.601,148.857 284.5,146.5 Z M 293.5,164.5 C 288.599,167.892 284.099,171.892 280,176.5C 267.614,191.929 257.78,208.929 250.5,227.5C 265.5,228.25 280.5,228.917 295.5,229.5C 310.15,228.586 324.817,228.253 339.5,228.5C 331.762,205.181 319.096,185.015 301.5,168C 299.182,166.007 296.516,164.841 293.5,164.5 Z M 259.5,169.5 C 230.195,178.826 206.528,195.993 188.5,221C 202.584,224.713 216.918,226.38 231.5,226C 238.518,205.792 248.518,187.292 261.5,170.5C 261.043,169.702 260.376,169.369 259.5,169.5 Z M 328.5,170.5 C 341.309,187.105 351.309,205.438 358.5,225.5C 372.295,226.321 385.962,225.154 399.5,222C 400.308,221.692 400.975,221.192 401.5,220.5C 383.149,194.536 358.816,177.87 328.5,170.5 Z M 178.5,237.5 C 174.164,247.179 170.664,257.179 168,267.5C 160.883,301.137 166.383,332.47 184.5,361.5C 198.289,358.078 212.289,355.911 226.5,355C 227.428,354.612 228.095,353.945 228.5,353C 217.729,317.116 216.729,280.949 225.5,244.5C 209.674,243.192 194.008,240.858 178.5,237.5 Z M 409.5,237.5 C 404.758,239.219 399.758,240.386 394.5,241C 384.504,242.333 374.504,243.5 364.5,244.5C 373.315,281.117 372.315,317.451 361.5,353.5C 362.025,354.192 362.692,354.692 363.5,355C 377.922,355.774 392.089,357.941 406,361.5C 429.629,321.618 431.629,280.618 412,238.5C 411.329,237.748 410.496,237.414 409.5,237.5 Z M 244.5,245.5 C 234.391,281.456 235.391,317.123 247.5,352.5C 276.815,352.248 306.149,352.582 335.5,353.5C 338.089,353.473 340.589,353.139 343,352.5C 354.328,317.184 355.494,281.517 346.5,245.5C 312.499,246.825 278.499,246.825 244.5,245.5 Z M 257.5,370.5 C 256.602,371.158 255.602,371.824 254.5,372.5C 258.906,382.316 264.072,391.65 270,400.5C 276.333,410.833 284.667,419.167 295,425.5C 297.365,424.711 299.532,423.544 301.5,422C 316.426,407.986 327.759,391.486 335.5,372.5C 334.624,371.749 333.624,371.249 332.5,371C 307.502,370.5 282.502,370.333 257.5,370.5 Z M 224.5,372.5 C 214.619,373.822 204.619,375.322 194.5,377C 212.112,398.105 234.112,412.605 260.5,420.5C 261.521,419.998 261.688,419.332 261,418.5C 250.447,404.735 241.947,389.735 235.5,373.5C 231.893,372.511 228.226,372.177 224.5,372.5 Z M 355.5,372.5 C 348.677,389.656 339.677,405.489 328.5,420C 355.474,413.006 377.808,398.673 395.5,377C 382.29,374.39 368.956,372.89 355.5,372.5 Z"/></g>
</svg>
