<?xml version="1.0" encoding="UTF-8"?>
<!DOCTYPE svg PUBLIC "-//W3C//DTD SVG 1.1//EN" "http://www.w3.org/Graphics/SVG/1.1/DTD/svg11.dtd">
<svg xmlns="http://www.w3.org/2000/svg" version="1.1" width="592px" height="591px" style="shape-rendering:geometricPrecision; text-rendering:geometricPrecision; image-rendering:optimizeQuality; fill-rule:evenodd; clip-rule:evenodd" xmlns:xlink="http://www.w3.org/1999/xlink">
<g><path style="opacity:0.954" fill="#3d7abd" d="M 284.5,51.5 C 380.125,51.0495 453.625,90.7162 505,170.5C 543.369,239.188 549.035,310.521 522,384.5C 488.181,463.647 429.348,513.147 345.5,533C 249.289,549.442 169.456,520.942 106,447.5C 51.9957,375.834 38.9957,297.167 67,211.5C 99.7597,129.745 158.926,78.245 244.5,57C 257.892,54.4944 271.226,52.6611 284.5,51.5 Z M 276.5,72.5 C 372.862,69.081 445.029,108.748 493,191.5C 528.137,263.489 526.803,334.823 489,405.5C 451.099,468.398 395.599,505.231 322.5,516C 229.743,523.034 157.576,488.2 106,411.5C 64.1819,338.252 62.1819,263.919 100,188.5C 139.606,120.752 198.439,82.0854 276.5,72.5 Z M 285.5,149.5 C 334.992,147.983 371.158,168.983 394,212.5C 405.843,239.865 406.51,267.532 396,295.5C 386.274,320.29 373.94,343.623 359,365.5C 340.682,391.778 320.682,416.778 299,440.5C 297.274,441.576 295.441,441.743 293.5,441C 256.4,402.895 225.9,360.062 202,312.5C 193.644,294.576 188.811,275.743 187.5,256C 193.357,195.649 226.024,160.149 285.5,149.5 Z M 290.5,212.5 C 319.027,212.532 335.86,226.532 341,254.5C 340.928,280.243 328.428,296.409 303.5,303C 282.814,305.572 266.98,298.072 256,280.5C 244.94,255.439 250.44,234.939 272.5,219C 278.299,215.918 284.299,213.752 290.5,212.5 Z"/></g>
<g><path style="opacity:0.951" fill="#3d7abd" d="M 288.5,129.5 C 343.95,129.204 384.783,153.204 411,201.5C 426.369,235.38 427.369,269.714 414,304.5C 399.669,339.516 381.002,371.849 358,401.5C 345.143,417.869 331.81,433.869 318,449.5C 308.492,462.052 296.658,464.885 282.5,458C 247.689,423.191 218.189,384.357 194,341.5C 183.819,322.807 176.153,303.14 171,282.5C 161.535,218.262 185.368,171.095 242.5,141C 257.333,134.625 272.667,130.792 288.5,129.5 Z M 285.5,149.5 C 226.024,160.149 193.357,195.649 187.5,256C 188.811,275.743 193.644,294.576 202,312.5C 225.9,360.062 256.4,402.895 293.5,441C 295.441,441.743 297.274,441.576 299,440.5C 320.682,416.778 340.682,391.778 359,365.5C 373.94,343.623 386.274,320.29 396,295.5C 406.51,267.532 405.843,239.865 394,212.5C 371.158,168.983 334.992,147.983 285.5,149.5 Z M 290.5,212.5 C 284.299,213.752 278.299,215.918 272.5,219C 250.44,234.939 244.94,255.439 256,280.5C 266.98,298.072 282.814,305.572 303.5,303C 328.428,296.409 340.928,280.243 341,254.5C 335.86,226.532 319.027,212.532 290.5,212.5 Z"/></g>
<g><path style="opacity:0.953" fill="#3d7abd" d="M 283.5,193.5 C 316.785,189.888 340.952,202.888 356,232.5C 366.205,261.486 360.372,286.653 338.5,308C 313.323,326.636 286.99,328.303 259.5,313C 232.017,291.548 224.184,264.381 236,231.5C 246.106,211.547 261.939,198.881 283.5,193.5 Z M 290.5,212.5 C 284.299,213.752 278.299,215.918 272.5,219C 250.44,234.939 244.94,255.439 256,280.5C 266.98,298.072 282.814,305.572 303.5,303C 328.428,296.409 340.928,280.243 341,254.5C 335.86,226.532 319.027,212.532 290.5,212.5 Z"/></g>
</svg>
