<?xml version="1.0" encoding="UTF-8"?>
<!DOCTYPE svg PUBLIC "-//W3C//DTD SVG 1.1//EN" "http://www.w3.org/Graphics/SVG/1.1/DTD/svg11.dtd">
<svg xmlns="http://www.w3.org/2000/svg" version="1.1" width="592px" height="591px" style="shape-rendering:geometricPrecision; text-rendering:geometricPrecision; image-rendering:optimizeQuality; fill-rule:evenodd; clip-rule:evenodd" xmlns:xlink="http://www.w3.org/1999/xlink">
<g><path style="opacity:0.953" fill="#fefffe" d="M 285.5,51.5 C 381.72,51.3433 455.22,91.6767 506,172.5C 542.938,239.561 548.605,309.228 523,381.5C 486.46,469.022 421.294,520.522 327.5,536C 237.397,545.009 163.23,515.175 105,446.5C 51.1125,373.83 38.7792,294.497 68,208.5C 101.245,128.26 160.078,77.7595 244.5,57C 258.218,54.4116 271.885,52.5783 285.5,51.5 Z M 276.5,72.5 C 369.371,69.0091 440.204,106.342 489,184.5C 527.935,257.331 528.268,330.331 490,403.5C 439.44,485.866 365.607,523.366 268.5,516C 193.866,504.651 137.699,466.484 100,401.5C 63.0994,329.669 63.4327,258.002 101,186.5C 140.617,119.764 199.117,81.7644 276.5,72.5 Z M 180.5,208.5 C 257.332,207.334 334.332,207.168 411.5,208C 376.5,237 341.5,266 306.5,295C 299.145,300.874 291.811,300.874 284.5,295C 249.987,265.92 215.32,237.087 180.5,208.5 Z M 162.5,218.5 C 200.136,249.659 237.803,280.825 275.5,312C 290.285,319.846 304.618,319.179 318.5,310C 355,279.5 391.5,249 428,218.5C 428.667,272.833 428.667,327.167 428,381.5C 426.264,388.237 422.097,392.737 415.5,395C 335.5,395.667 255.5,395.667 175.5,395C 168.483,392.648 164.316,387.815 163,380.5C 162.5,326.501 162.333,272.501 162.5,218.5 Z"/></g>
<g><path style="opacity:0.973" fill="#fefffe" d="M 149.5,189.5 C 247.582,189.005 345.582,189.505 443.5,191C 444.701,191.903 445.535,193.069 446,194.5C 446.667,258.833 446.667,323.167 446,387.5C 441.633,401.868 432.133,410.701 417.5,414C 336.167,414.667 254.833,414.667 173.5,414C 158.876,410.71 149.376,401.877 145,387.5C 144.333,323.167 144.333,258.833 145,194.5C 146.059,192.341 147.559,190.674 149.5,189.5 Z M 180.5,208.5 C 215.32,237.087 249.987,265.92 284.5,295C 291.811,300.874 299.145,300.874 306.5,295C 341.5,266 376.5,237 411.5,208C 334.332,207.168 257.332,207.334 180.5,208.5 Z M 162.5,218.5 C 162.333,272.501 162.5,326.501 163,380.5C 164.316,387.815 168.483,392.648 175.5,395C 255.5,395.667 335.5,395.667 415.5,395C 422.097,392.737 426.264,388.237 428,381.5C 428.667,327.167 428.667,272.833 428,218.5C 391.5,249 355,279.5 318.5,310C 304.618,319.179 290.285,319.846 275.5,312C 237.803,280.825 200.136,249.659 162.5,218.5 Z"/></g>
</svg>
