<?xml version="1.0" encoding="UTF-8"?>
<!DOCTYPE svg PUBLIC "-//W3C//DTD SVG 1.1//EN" "http://www.w3.org/Graphics/SVG/1.1/DTD/svg11.dtd">
<svg xmlns="http://www.w3.org/2000/svg" version="1.1" width="592px" height="591px" style="shape-rendering:geometricPrecision; text-rendering:geometricPrecision; image-rendering:optimizeQuality; fill-rule:evenodd; clip-rule:evenodd" xmlns:xlink="http://www.w3.org/1999/xlink">
<g><path style="opacity:0.954" fill="#3d7abd" d="M 284.5,51.5 C 381.114,51.0414 454.947,91.3747 506,172.5C 542.938,239.56 548.605,309.227 523,381.5C 489.664,462.163 430.498,512.663 345.5,533C 256.992,548.716 181.159,524.883 118,461.5C 63.4601,400.182 43.1268,328.849 57,247.5C 75.0036,166.845 121.17,108.678 195.5,73C 224.034,60.6155 253.7,53.4489 284.5,51.5 Z M 276.5,72.5 C 369.366,69.0068 440.199,106.34 489,184.5C 527.935,257.331 528.268,330.331 490,403.5C 452.12,467.226 396.287,504.726 322.5,516C 233.737,523.192 163.237,491.026 111,419.5C 67.7323,351.172 61.3989,279.505 92,204.5C 121.12,142.717 168.287,101.55 233.5,81C 247.762,77.0717 262.096,74.2384 276.5,72.5 Z M 180.5,208.5 C 257.332,207.334 334.332,207.168 411.5,208C 376.316,236.761 341.316,265.761 306.5,295C 299.167,301 291.833,301 284.5,295C 249.987,265.92 215.32,237.087 180.5,208.5 Z M 162.5,218.5 C 200.136,249.659 237.803,280.825 275.5,312C 290.247,319.849 304.58,319.182 318.5,310C 355,279.5 391.5,249 428,218.5C 428.667,272.833 428.667,327.167 428,381.5C 426.237,388.262 422.07,392.762 415.5,395C 335.5,395.667 255.5,395.667 175.5,395C 168.483,392.648 164.316,387.815 163,380.5C 162.5,326.501 162.333,272.501 162.5,218.5 Z"/></g>
<g><path style="opacity:0.973" fill="#3d7abd" d="M 149.5,189.5 C 247.582,189.005 345.582,189.505 443.5,191C 444.701,191.903 445.535,193.069 446,194.5C 446.667,258.833 446.667,323.167 446,387.5C 441.633,401.868 432.133,410.701 417.5,414C 336.167,414.667 254.833,414.667 173.5,414C 158.85,410.683 149.35,401.849 145,387.5C 144.333,323.167 144.333,258.833 145,194.5C 146.059,192.341 147.559,190.674 149.5,189.5 Z M 180.5,208.5 C 215.32,237.087 249.987,265.92 284.5,295C 291.833,301 299.167,301 306.5,295C 341.316,265.761 376.316,236.761 411.5,208C 334.332,207.168 257.332,207.334 180.5,208.5 Z M 162.5,218.5 C 162.333,272.501 162.5,326.501 163,380.5C 164.316,387.815 168.483,392.648 175.5,395C 255.5,395.667 335.5,395.667 415.5,395C 422.07,392.762 426.237,388.262 428,381.5C 428.667,327.167 428.667,272.833 428,218.5C 391.5,249 355,279.5 318.5,310C 304.58,319.182 290.247,319.849 275.5,312C 237.803,280.825 200.136,249.659 162.5,218.5 Z"/></g>
</svg>
