<?xml version="1.0" encoding="UTF-8"?>
<!DOCTYPE svg PUBLIC "-//W3C//DTD SVG 1.1//EN" "http://www.w3.org/Graphics/SVG/1.1/DTD/svg11.dtd">
<svg xmlns="http://www.w3.org/2000/svg" version="1.1" width="591px" height="591px" style="shape-rendering:geometricPrecision; text-rendering:geometricPrecision; image-rendering:optimizeQuality; fill-rule:evenodd; clip-rule:evenodd" xmlns:xlink="http://www.w3.org/1999/xlink">
<g><path style="opacity:0.954" fill="#fefffe" d="M 284.5,51.5 C 382.195,51.414 456.362,92.7474 507,175.5C 542.145,242.278 547.145,311.278 522,382.5C 485.044,469.442 419.877,520.609 326.5,536C 235.017,544.993 160.184,514.16 102,443.5C 50.1698,371.697 38.5032,293.697 67,209.5C 99.2084,130.297 156.708,79.7966 239.5,58C 254.496,54.7645 269.496,52.5979 284.5,51.5 Z M 276.5,72.5 C 370.475,69.3915 441.642,107.725 490,187.5C 526.307,258.336 526.641,329.336 491,400.5C 451.013,469.416 391.18,508.25 311.5,517C 219.267,519.977 149.1,482.477 101,404.5C 67.086,340.539 63.4193,274.872 90,207.5C 118.179,145.322 164.679,103.489 229.5,82C 245.06,77.5882 260.727,74.4216 276.5,72.5 Z M 213.5,155.5 C 227.832,156.232 242.165,157.065 256.5,158C 258.815,159.109 260.315,160.943 261,163.5C 262.504,180.193 264.17,196.86 266,213.5C 265.215,215.286 264.049,216.786 262.5,218C 254.875,219.092 248.042,221.926 242,226.5C 238.776,231.362 237.776,236.696 239,242.5C 240.919,252.511 243.919,262.177 248,271.5C 260.123,300.438 275.79,327.104 295,351.5C 300.167,358 306,363.833 312.5,369C 319.5,373.667 326.5,373.667 333.5,369C 337.435,364.39 341.935,360.557 347,357.5C 355.04,362.199 362.54,367.699 369.5,374C 377.249,378.424 384.415,383.591 391,389.5C 391.402,390.872 391.902,392.205 392.5,393.5C 386.056,407.559 378.723,421.059 370.5,434C 367.845,435.441 365.012,436.274 362,436.5C 348.827,434.22 336.66,429.386 325.5,422C 267.006,380.796 227.839,325.629 208,256.5C 200.088,229.961 197.754,202.961 201,175.5C 201.943,166.574 206.11,159.907 213.5,155.5 Z"/></g>
<g><path style="opacity:0.953" fill="#fefffe" d="M 208.5,135.5 C 226.199,135.668 243.865,136.501 261.5,138C 272.952,141.786 279.785,149.619 282,161.5C 282.381,175.26 283.714,188.927 286,202.5C 289.302,223.679 280.469,236.012 259.5,239.5C 271.909,281.668 293.076,318.668 323,350.5C 334.773,336.43 348.606,333.93 364.5,343C 375.947,353.223 388.28,362.223 401.5,370C 413.908,382.375 415.742,396.209 407,411.5C 401.254,422.66 395.254,433.66 389,444.5C 379.803,455.013 368.303,458.846 354.5,456C 337.477,451.988 321.81,444.988 307.5,435C 238.003,382.899 195.836,313.732 181,227.5C 176.724,203.807 178.057,180.473 185,157.5C 189.212,146.116 197.045,138.783 208.5,135.5 Z M 213.5,155.5 C 206.11,159.907 201.943,166.574 201,175.5C 197.754,202.961 200.088,229.961 208,256.5C 227.839,325.629 267.006,380.796 325.5,422C 336.66,429.386 348.827,434.22 362,436.5C 365.012,436.274 367.845,435.441 370.5,434C 378.723,421.059 386.056,407.559 392.5,393.5C 391.902,392.205 391.402,390.872 391,389.5C 384.415,383.591 377.249,378.424 369.5,374C 362.54,367.699 355.04,362.199 347,357.5C 341.935,360.557 337.435,364.39 333.5,369C 326.5,373.667 319.5,373.667 312.5,369C 306,363.833 300.167,358 295,351.5C 275.79,327.104 260.123,300.438 248,271.5C 243.919,262.177 240.919,252.511 239,242.5C 237.776,236.696 238.776,231.362 242,226.5C 248.042,221.926 254.875,219.092 262.5,218C 264.049,216.786 265.215,215.286 266,213.5C 264.17,196.86 262.504,180.193 261,163.5C 260.315,160.943 258.815,159.109 256.5,158C 242.165,157.065 227.832,156.232 213.5,155.5 Z"/></g>
</svg>
