<?xml version="1.0" encoding="UTF-8"?>
<!DOCTYPE svg PUBLIC "-//W3C//DTD SVG 1.1//EN" "http://www.w3.org/Graphics/SVG/1.1/DTD/svg11.dtd">
<svg xmlns="http://www.w3.org/2000/svg" version="1.1" width="592px" height="591px" style="shape-rendering:geometricPrecision; text-rendering:geometricPrecision; image-rendering:optimizeQuality; fill-rule:evenodd; clip-rule:evenodd" xmlns:xlink="http://www.w3.org/1999/xlink">
<g><path style="opacity:0.954" fill="#3d7abd" d="M 283.5,51.5 C 379.019,50.6636 452.519,89.9969 504,169.5C 543.62,239.947 548.953,312.947 520,388.5C 484.572,467.49 424.405,515.99 339.5,534C 250.872,547.57 175.706,522.07 114,457.5C 56.6509,389.413 39.3176,312.08 62,225.5C 84.4833,154.348 129.65,103.181 197.5,72C 225.093,60.1194 253.76,53.286 283.5,51.5 Z M 276.5,72.5 C 354.541,68.6178 418.708,96.2844 469,155.5C 515.148,216.241 528.481,283.575 509,357.5C 479.596,444.627 419.763,497.127 329.5,515C 247.813,524.879 179.646,499.379 125,438.5C 72.7624,372.296 59.7624,298.962 86,218.5C 113.798,148.036 163.965,101.869 236.5,80C 249.834,76.725 263.168,74.225 276.5,72.5 Z M 233.5,158.5 C 274.501,158.333 315.501,158.5 356.5,159C 361.185,160.35 364.685,163.183 367,167.5C 368.658,251.443 368.992,335.443 368,419.5C 366.594,424.573 363.428,428.073 358.5,430C 317.226,431.65 275.893,431.983 234.5,431C 229.09,429.257 225.256,425.757 223,420.5C 221.342,337.89 221.008,255.223 222,172.5C 223.835,166.167 227.668,161.501 233.5,158.5 Z"/></g>
<g><path style="opacity:0.962" fill="#3d7abd" d="M 233.5,137.5 C 274.501,137.333 315.501,137.5 356.5,138C 374.874,140.708 385.708,151.208 389,169.5C 389.667,253.167 389.667,336.833 389,420.5C 385.797,436.036 376.631,446.203 361.5,451C 317.5,451.667 273.5,451.667 229.5,451C 215.009,447.175 205.842,438.009 202,423.5C 201.333,337.833 201.333,252.167 202,166.5C 206.665,150.329 217.165,140.662 233.5,137.5 Z M 233.5,158.5 C 227.668,161.501 223.835,166.167 222,172.5C 221.008,255.223 221.342,337.89 223,420.5C 225.256,425.757 229.09,429.257 234.5,431C 275.893,431.983 317.226,431.65 358.5,430C 363.428,428.073 366.594,424.573 368,419.5C 368.992,335.443 368.658,251.443 367,167.5C 364.685,163.183 361.185,160.35 356.5,159C 315.501,158.5 274.501,158.333 233.5,158.5 Z"/></g>
<g><path style="opacity:0.936" fill="#3d7abd" d="M 290.5,386.5 C 301.13,384.964 307.463,389.464 309.5,400C 306.696,412.401 299.363,416.401 287.5,412C 281.028,406.096 279.861,399.262 284,391.5C 285.965,389.45 288.132,387.783 290.5,386.5 Z"/></g>
</svg>
