<?xml version="1.0" encoding="UTF-8"?>
<!DOCTYPE svg PUBLIC "-//W3C//DTD SVG 1.1//EN" "http://www.w3.org/Graphics/SVG/1.1/DTD/svg11.dtd">
<svg xmlns="http://www.w3.org/2000/svg" version="1.1" width="591px" height="591px" style="shape-rendering:geometricPrecision; text-rendering:geometricPrecision; image-rendering:optimizeQuality; fill-rule:evenodd; clip-rule:evenodd" xmlns:xlink="http://www.w3.org/1999/xlink">
<g><path style="opacity:0.954" fill="#fefffe" d="M 284.5,51.5 C 372.114,50.5594 441.947,84.8928 494,154.5C 534.622,214.28 547.289,279.614 532,350.5C 511.629,428.195 465.129,484.028 392.5,518C 326.705,545.506 261.039,545.172 195.5,517C 119.952,480.772 73.4518,421.606 56,339.5C 41.5626,239.422 74.0626,158.589 153.5,97C 192.876,69.375 236.543,54.2083 284.5,51.5 Z M 276.5,72.5 C 356.508,68.765 421.675,97.765 472,159.5C 521.92,229.434 530.92,304.434 499,384.5C 465.774,454.38 411.274,497.546 335.5,514C 255.961,526.042 188.128,503.542 132,446.5C 76.9507,383.622 60.2841,311.622 82,230.5C 109.054,150.78 163.22,99.9466 244.5,78C 255.253,75.825 265.92,73.9917 276.5,72.5 Z M 293.5,164.5 C 296.516,164.841 299.182,166.007 301.5,168C 319.096,185.015 331.762,205.181 339.5,228.5C 324.656,228.348 309.822,228.681 295,229.5C 280.159,229.014 265.325,228.347 250.5,227.5C 257.78,208.929 267.614,191.929 280,176.5C 284.099,171.892 288.599,167.892 293.5,164.5 Z M 259.5,169.5 C 260.376,169.369 261.043,169.702 261.5,170.5C 248.221,187.719 238.054,206.719 231,227.5C 221.215,226.371 211.381,225.204 201.5,224C 197.032,223.507 192.698,222.507 188.5,221C 206.516,195.997 230.183,178.83 259.5,169.5 Z M 328.5,170.5 C 328.735,169.903 329.235,169.57 330,169.5C 359.272,178.295 382.939,194.961 401,219.5C 401.667,220.167 401.667,220.833 401,221.5C 387.116,224.355 373.116,226.355 359,227.5C 351.917,206.656 341.75,187.656 328.5,170.5 Z M 178.5,237.5 C 193.977,241.044 209.643,243.378 225.5,244.5C 219.693,268.903 218.193,293.57 221,318.5C 222.722,330.704 225.055,342.704 228,354.5C 213.361,355.759 198.861,358.092 184.5,361.5C 166.383,332.47 160.883,301.137 168,267.5C 170.81,257.235 174.31,247.235 178.5,237.5 Z M 409.5,237.5 C 410.496,237.414 411.329,237.748 412,238.5C 429.192,274.526 429.858,310.859 414,347.5C 411.906,352.702 409.072,357.369 405.5,361.5C 391.711,358.078 377.711,355.911 363.5,355C 362.692,354.692 362.025,354.192 361.5,353.5C 372.315,317.451 373.315,281.117 364.5,244.5C 379.841,243.542 394.841,241.208 409.5,237.5 Z M 244.5,245.5 C 278.499,246.825 312.499,246.825 346.5,245.5C 355.494,281.517 354.328,317.184 343,352.5C 340.422,353.141 337.755,353.475 335,353.5C 305.817,352.589 276.65,352.256 247.5,352.5C 235.391,317.123 234.391,281.456 244.5,245.5 Z M 258.5,370.5 C 282.836,370.333 307.169,370.5 331.5,371C 332.938,371.219 334.271,371.719 335.5,372.5C 327.759,391.486 316.426,407.986 301.5,422C 299.63,423.366 297.63,424.533 295.5,425.5C 284.858,419.358 276.358,411.024 270,400.5C 264.072,391.65 258.906,382.316 254.5,372.5C 255.949,371.828 257.282,371.161 258.5,370.5 Z M 224.5,372.5 C 228.226,372.177 231.893,372.511 235.5,373.5C 241.947,389.735 250.447,404.735 261,418.5C 261.688,419.332 261.521,419.998 260.5,420.5C 234.112,412.605 212.112,398.105 194.5,377C 204.621,375.322 214.621,373.822 224.5,372.5 Z M 355.5,372.5 C 368.941,373.013 382.274,374.513 395.5,377C 377.808,398.673 355.474,413.006 328.5,420C 339.677,405.489 348.677,389.656 355.5,372.5 Z"/></g>
<g><path style="opacity:0.954" fill="#fefffe" d="M 284.5,146.5 C 353.578,145.606 402.745,176.272 432,238.5C 452.706,293.588 445.039,344.254 409,390.5C 371.64,432.289 325.14,449.122 269.5,441C 208.133,427.634 168.633,390.801 151,330.5C 140.047,278.64 152.047,232.973 187,193.5C 213.747,165.876 246.247,150.21 284.5,146.5 Z M 293.5,164.5 C 288.599,167.892 284.099,171.892 280,176.5C 267.614,191.929 257.78,208.929 250.5,227.5C 265.325,228.347 280.159,229.014 295,229.5C 309.822,228.681 324.656,228.348 339.5,228.5C 331.762,205.181 319.096,185.015 301.5,168C 299.182,166.007 296.516,164.841 293.5,164.5 Z M 259.5,169.5 C 230.183,178.83 206.516,195.997 188.5,221C 192.698,222.507 197.032,223.507 201.5,224C 211.381,225.204 221.215,226.371 231,227.5C 238.054,206.719 248.221,187.719 261.5,170.5C 261.043,169.702 260.376,169.369 259.5,169.5 Z M 328.5,170.5 C 341.75,187.656 351.917,206.656 359,227.5C 373.116,226.355 387.116,224.355 401,221.5C 401.667,220.833 401.667,220.167 401,219.5C 382.939,194.961 359.272,178.295 330,169.5C 329.235,169.57 328.735,169.903 328.5,170.5 Z M 178.5,237.5 C 174.31,247.235 170.81,257.235 168,267.5C 160.883,301.137 166.383,332.47 184.5,361.5C 198.861,358.092 213.361,355.759 228,354.5C 225.055,342.704 222.722,330.704 221,318.5C 218.193,293.57 219.693,268.903 225.5,244.5C 209.643,243.378 193.977,241.044 178.5,237.5 Z M 409.5,237.5 C 394.841,241.208 379.841,243.542 364.5,244.5C 373.315,281.117 372.315,317.451 361.5,353.5C 362.025,354.192 362.692,354.692 363.5,355C 377.711,355.911 391.711,358.078 405.5,361.5C 409.072,357.369 411.906,352.702 414,347.5C 429.858,310.859 429.192,274.526 412,238.5C 411.329,237.748 410.496,237.414 409.5,237.5 Z M 244.5,245.5 C 234.391,281.456 235.391,317.123 247.5,352.5C 276.65,352.256 305.817,352.589 335,353.5C 337.755,353.475 340.422,353.141 343,352.5C 354.328,317.184 355.494,281.517 346.5,245.5C 312.499,246.825 278.499,246.825 244.5,245.5 Z M 258.5,370.5 C 257.282,371.161 255.949,371.828 254.5,372.5C 258.906,382.316 264.072,391.65 270,400.5C 276.358,411.024 284.858,419.358 295.5,425.5C 297.63,424.533 299.63,423.366 301.5,422C 316.426,407.986 327.759,391.486 335.5,372.5C 334.271,371.719 332.938,371.219 331.5,371C 307.169,370.5 282.836,370.333 258.5,370.5 Z M 224.5,372.5 C 214.621,373.822 204.621,375.322 194.5,377C 212.112,398.105 234.112,412.605 260.5,420.5C 261.521,419.998 261.688,419.332 261,418.5C 250.447,404.735 241.947,389.735 235.5,373.5C 231.893,372.511 228.226,372.177 224.5,372.5 Z M 355.5,372.5 C 348.677,389.656 339.677,405.489 328.5,420C 355.474,413.006 377.808,398.673 395.5,377C 382.274,374.513 368.941,373.013 355.5,372.5 Z"/></g>
</svg>
